<svg width="204" height="117" viewBox="0 0 204 117" fill="none" xmlns="http://www.w3.org/2000/svg">
<path fill-rule="evenodd" clip-rule="evenodd" d="M82.0807 92.7566L66.709 98.9095C72.1146 97.9536 77.2313 95.8422 82.0807 92.7566M117.36 90.6861C111.284 92.213 105.306 93.9787 99.1741 94.6701C105.55 95.518 111.517 93.3245 117.36 90.6861M103.156 67.5018C103.281 64.5937 101.733 64.9089 100.316 65.1123C95.5227 65.7965 92.9281 70.208 90.4805 74.4546C88.6962 77.5494 87.1578 81.0361 86.9907 85.0122C86.9265 86.5281 87.2179 87.7441 88.8582 86.713C93.3364 83.8968 97.3927 80.4297 100.401 75.3908C101.834 72.9901 102.861 70.3398 103.156 67.5018M99.3088 91.2294C103.178 91.5893 106.94 90.4031 110.691 89.3695C126.897 84.9022 140.748 74.8987 153.428 61.9744C161.897 53.3405 169.62 43.8153 177.086 33.9425C177.768 33.0425 178.428 32.0993 179.423 31.7094C180.542 31.2721 181.317 31.4053 180.74 33.1849C180.599 33.6235 180.083 34.021 180.762 34.3007C183.102 35.2666 182.392 37.3557 181.91 39.2611C181.006 42.8374 178.943 45.6129 177.16 48.5135C172.167 56.6408 166.92 64.5489 160.877 71.5609C155.268 78.07 148.96 83.5252 142.533 88.7634C138.441 92.0977 134.243 95.4207 129.507 96.8345C126.361 97.7737 123.773 100.017 120.702 100.976C114.815 102.815 108.936 104.57 102.84 104.787C97.8217 104.965 93.1308 103.6 88.8729 100.415C87.4694 99.3643 86.1216 99.2506 84.6403 99.9375C80.6479 101.787 76.5964 103.486 72.5603 105.106C65.9939 107.742 59.1291 109.098 52.2694 110.124C41.3284 111.759 30.4156 112.034 19.6204 109.047C13.2757 107.292 7.11893 105.056 2.50753 98.9761C1.29335 97.3755 0.410935 95.6237 0.544745 93.3075C0.60149 92.3092 0.883946 91.5615 1.6974 91.1691C2.6592 90.7066 2.71587 91.5288 3.12782 92.2922C5.9519 97.5286 10.6947 98.3553 15.1854 99.6404C27.5607 103.182 40.0203 102.143 52.4887 99.894C62.0298 98.1726 71.354 95.3324 80.4094 91.1666C81.1287 90.8358 82.1038 90.8973 81.567 89.2448C79.6965 83.4876 80.2147 77.6789 82.0679 72.0693C84.9278 63.4102 89.3572 56.458 97.1652 53.9989C101.361 52.6771 104.074 54.4141 106.369 58.8131C112.218 70.0191 108.433 81.7615 101.134 88.6292C100.479 89.2433 99.8259 89.8574 99.1733 90.4705C99.2181 90.7242 99.2639 90.9768 99.3088 91.2294" fill="#1e293b"/>
<path fill-rule="evenodd" clip-rule="evenodd" d="M181.629 17.8484C186.545 16.1357 191.171 13.6558 195.37 10.0515C190.79 12.6501 186.21 15.2498 181.629 17.8484M190.865 43.1109C191.182 36.8124 192.372 30.6758 193.364 24.5016C193.512 23.5788 194.084 22.586 193.158 21.7458C192.268 20.9392 191.537 21.7104 190.901 22.189C187.436 24.7933 183.552 26.019 179.813 27.7629C177.45 28.8656 175.234 30.52 172.78 31.5629C169.001 33.1671 165.312 35.118 161.625 37.0376C159.756 38.01 157.607 37.8773 155.948 39.7918C154.32 41.6694 152.641 41.0339 150.816 37.7595C149.885 36.0887 149.552 33.8903 151.277 32.3886C152.695 31.154 154.215 30.0308 155.798 29.1563C166.27 23.3706 176.78 17.6877 187.257 11.9166C189.609 10.6216 191.894 9.13234 194.196 7.69945C198.381 5.0937 200.091 5.88426 202.117 11.0236C203.69 15.0133 203.702 18.9013 202.424 23.056C199.965 31.0538 197.692 39.1346 196.498 47.5737C196.259 49.2649 196.215 50.9925 196.03 52.6965C195.816 54.6698 195.041 55.1505 193.689 53.9418C190.692 51.2648 190.46 50.3878 190.865 43.1109" fill="#1e293b"/>
</svg>

