<?xml version="1.0" encoding="UTF-8"?>
<svg viewBox="0 0 1600 1200" version="1.1" xmlns="http://www.w3.org/2000/svg" xmlns:xlink="http://www.w3.org/1999/xlink">
    <g id="Patterns" stroke="none" stroke-width="1" fill="none" fill-rule="evenodd">
        <g id="Hinterrhein" fill-rule="nonzero" stroke-width="30">
            <g transform="translate(-218.000000, -5.000000)" id="Shape">
                <ellipse stroke="#A4ABBD" stroke-linejoin="round" cx="1847" cy="110.5" rx="38" ry="37.5"></ellipse>
                <path d="M1609,971.95215 C1609,916.747664 1658.24555,872 1719,872 C1740.09181,872 1759.80569,877.393271 1776.54448,886.751028 M1829,1040 L1829,971.95215 C1829,950.174953 1821.33523,930.022804 1808.32313,913.607477" stroke="#A4ABBD" stroke-linejoin="round"></path>
                <path d="M1872,280 L1908.54783,280 C1933.09826,280 1953,260.971806 1953,237.5 C1953,214.028194 1933.09826,195 1908.54783,195 L1835.45217,195 C1810.90174,195 1791,214.028194 1791,237.5" stroke="#A4ABBD" stroke-linejoin="round"></path>
                <path d="M1258.95215,220 C1203.74766,220 1159,170.751317 1159,110 C1159,88.9050534 1164.39327,69.1966548 1173.75103,52.455516 M1327,-1.48858703e-12 L1258.95215,-1.48858703e-12 C1237.17495,-1.48858703e-12 1217.0228,7.66382918 1200.60748,20.674363" stroke="#A4ABBD" stroke-linejoin="round"></path>
                <path d="M1535.5,1120 L1532.36486,1120 C1510.07405,1120 1492,1138.13456 1492,1160.5 C1492,1182.86544 1510.07405,1201 1532.36486,1201 L1625.63514,1201 C1647.92595,1201 1666,1182.86544 1666,1160.5 C1666,1138.13456 1647.92595,1120 1625.63514,1120 L1622.5,1120" stroke="#05203D" stroke-linejoin="round"></path>
                <path d="M1182,1205 C1156.04033,1205 1135,1183.95967 1135,1158 C1135,1132.04033 1156.04033,1111 1182,1111" stroke="#404756" stroke-linejoin="round"></path>
                <path d="M1582.56338,228 C1604.34028,228 1622,210.53903 1622,189 C1622,167.46097 1604.34028,150 1582.56338,150 L1538,150" stroke="#A4ABBD" stroke-linejoin="round"></path>
                <path d="M331,10 L108.050265,10 C64.3920468,10 29,45.3695515 29,89" stroke="#05203D" stroke-linejoin="round"></path>
                <path d="M1743,1205 L1743,1052.9203 C1743,1023.14038 1718.82522,999 1689,999 C1659.17478,999 1635,1023.14038 1635,1052.9203 L1635,1076.45757" stroke="#404756" stroke-linejoin="round"></path>
                <path d="M206,406 C257.914633,406 300,364.586653 300,313.5 C300,262.413347 257.914633,221 206,221 C154.085367,221 112,262.413347 112,313.5" stroke="#A4ABBD" stroke-linejoin="round"></path>
                <path d="M281.380368,105.5 C281.380368,129.524541 262.04373,149 238.190184,149 C214.336638,149 195,129.524541 195,105.5 C195,81.4754595 214.336638,62 238.190184,62 L323,62" stroke="#A4ABBD" stroke-linejoin="round"></path>
                <path d="M862,98.5 L862,40.1526549 C862,23.4997743 875.433766,10 892,10 C908.566234,10 922,23.4997743 922,40.1526549 L922,156.847345 C922,173.500226 908.566234,187 892,187 C875.433766,187 862,173.500226 862,156.847345 L862,142.75" stroke="#A4ABBD" stroke-linejoin="round"></path>
                <path d="M806,19 L806,170.829094 C806,216.21096 842.936429,253 888.5,253 C934.063571,253 971,216.21096 971,170.829094 L971,134.957208" stroke="#404756" stroke-linejoin="round"></path>
                <path d="M1394,62 L1573.97897,62 C1642.47299,62 1698,117.740764 1698,186.5 C1698,255.259236 1642.47299,311 1573.97897,311 L1519.83093,311" stroke="#404756" stroke-linejoin="round"></path>
                <path d="M1877,316 L1877,398.011565 C1877,433.351043 1848.08459,462 1812.41096,462 L1762,462" stroke="#05203D" stroke-linejoin="round"></path>
                <path d="M634,366 L634,420.993352 C634,460.761599 666.235652,493 706,493" stroke="#404756" stroke-linejoin="round"></path>
                <path d="M523,755 L523,668.920385 C523,619.356033 561.840526,577.837138 614,567" stroke="#A4ABBD" stroke-linejoin="round"></path>
                <path d="M1516.5,445.5 L1621.81017,445.5 C1682.44741,445.5 1733.2418,492.876905 1746.5,556.5" stroke="#05203D"></path>
                <path d="M1732,326.3 C1732,300.177109 1753.26901,279 1779.5,279 C1805.73099,279 1827,300.177109 1827,326.3 L1827,360.7 C1827,386.822891 1805.73099,408 1779.5,408 C1753.26901,408 1732,386.822891 1732,360.7 L1732,326.3 Z" stroke="#404756" stroke-linejoin="round"></path>
                <path d="M746.99922,373 L747,172.197372 C747,132.876519 715.212286,101 676,101" stroke="#A4ABBD" stroke-linejoin="round"></path>
                <circle stroke="#404756" stroke-linejoin="round" cx="1419" cy="221" r="32"></circle>
                <path d="M1419,311 C1469.80749,311 1511,270.481857 1511,220.5 C1511,170.518143 1469.80749,130 1419,130 C1368.19251,130 1327,170.518143 1327,220.5" stroke="#A4ABBD" stroke-linejoin="round"></path>
                <path d="M1263.5,72 C1242.78906,72 1226,88.7889474 1226,109.5 C1226,130.211053 1242.78906,147 1263.5,147 C1284.21094,147 1301,130.211053 1301,109.5 L1301,72" stroke="#05203D" stroke-linejoin="round"></path>
                <path d="M1115.5,817.758427 C1091.47703,817.758427 1072,837.059551 1072,860.875281 C1072,884.691011 1091.47703,904 1115.5,904 C1139.52297,904 1159,884.691011 1159,860.875281 L1159,729" stroke="#A4ABBD" stroke-linejoin="round"></path>
                <path d="M945.831409,1111.5 C945.831409,1133.31495 963.333949,1151 984.91963,1151 C1006.50531,1151 1024,1133.31495 1024,1111.5 C1024,1089.68505 1006.50531,1072 984.91963,1072 L854,1072" stroke="#A4ABBD" stroke-linejoin="round"></path>
                <path d="M781.791855,1127 L881.208145,1127 C901.529774,1127 918,1143.5634 918,1164 C918,1184.4366 901.529774,1201 881.208145,1201 L781.791855,1201 C761.472575,1201 745,1184.4366 745,1164 C745,1143.5634 761.472575,1127 781.791855,1127 Z" stroke="#A4ABBD" stroke-linejoin="round"></path>
                <path d="M597,267 C597,316.705826 556.705826,357 507,357 C457.294174,357 417,316.705826 417,267" stroke="#A4ABBD" stroke-linejoin="round"></path>
                <path d="M675,312 L675,202.002021 C675,180.461549 657.53892,163 636,163 C614.46108,163 597,180.461549 597,202.002021 L597,219.027911" stroke="#05203D" stroke-linejoin="round"></path>
                <ellipse stroke="#05203D" stroke-linejoin="round" cx="444" cy="429.5" rx="27" ry="26.5"></ellipse>
                <path d="M467,250.225 L467,139.775 C467,118.360233 484.46097,101 506,101 C527.53903,101 545,118.360233 545,139.775 L545,250.225 C545,271.639767 527.53903,289 506,289 C484.46097,289 467,271.639767 467,250.225 Z" stroke="#A4ABBD" stroke-linejoin="round"></path>
                <path d="M1360,312 L1271.92522,312 C1216.18783,312 1171,357.219031 1171,413" stroke="#A4ABBD" stroke-linejoin="round"></path>
                <path d="M205.5,353.509804 C226.210938,353.509804 243,336.830588 243,316.254902 C243,295.679216 226.210938,279 205.5,279 C184.789062,279 168,295.679216 168,316.254902 L168,559" stroke="#05203D" stroke-linejoin="round"></path>
                <path d="M1447.5,506 C1425.68505,506 1408,523.46108 1408,545 C1408,566.53892 1425.68505,584 1447.5,584 C1469.31495,584 1487,566.53892 1487,545 L1487,506" stroke="#A4ABBD" stroke-linejoin="round"></path>
                <path d="M1689,690.754093 C1689,746.670617 1734.8933,792 1791.5,792 C1848.1067,792 1894,746.670617 1894,690.754093 L1894,582" stroke="#404756" stroke-linejoin="round"></path>
                <path d="M1635.62574,738 L1630.52959,738 C1601.52071,738 1578,714.494888 1578,685.5 C1578,656.505112 1601.52071,633 1630.52959,633 L1790.47041,633 C1819.47929,633 1843,656.505112 1843,685.5 C1843,714.494888 1819.47929,738 1790.47041,738 L1788.90237,738" stroke="#05203D" stroke-linejoin="round"></path>
                <path d="M1538,506 L1602.53071,506 C1645.87071,506 1681,540.92216 1681,584" stroke="#404756" stroke-linejoin="round"></path>
                <ellipse stroke="#05203D" stroke-linejoin="round" cx="869" cy="862.5" rx="38" ry="37.5"></ellipse>
                <path d="M776.403578,840.520014 C762.460481,892.643707 792.620681,946.025666 843.760284,959.7565 C894.899888,973.487334 947.656493,942.360965 961.597235,890.237272 C975.537978,838.113579 945.380133,784.73162 894.240529,771" stroke="#A4ABBD" stroke-linejoin="round"></path>
                <path d="M845.65848,770.60169 L660.398666,770.60169 C624.696229,770.582931 595.7394,741.080367 595.722595,704.701923 C595.705848,668.32348 624.633252,638.846139 660.335552,638.864352 C696.037852,638.882633 724.996214,668.384786 725.011456,704.763641 L664.692251,704.763641 L664.692251,704.763641" stroke="#05203D"></path>
                <path d="M841.5,557 C841.5,565.958167 841.5,678.732452 841.5,734" stroke="#404756" stroke-linejoin="round"></path>
                <path d="M501.019608,1112 C484.992157,1112 472,1099.24137 472,1083.5 C472,1067.75863 484.992157,1055 501.019608,1055 L532,1055" stroke="#A4ABBD" stroke-linejoin="round"></path>
                <ellipse stroke="#A4ABBD" stroke-linejoin="round" cx="327.5" cy="1114" rx="41.5" ry="41"></ellipse>
                <path d="M415,1113 C415,1062.19251 374.481857,1021 324.5,1021 C274.518143,1021 234,1062.19251 234,1113 C234,1163.80749 274.518143,1205 324.5,1205" stroke="#05203D" stroke-linejoin="round"></path>
                <path d="M569,1055 L606.905196,1055 C632.362692,1055 653,1035.30214 653,1011 C653,986.697857 632.362692,967 606.905196,967 L531.094804,967 C505.637308,967 485,986.697857 485,1011" stroke="#05203D" stroke-linejoin="round"></path>
                <path d="M416,992 C416,945.611589 453.444786,908 499.636143,908 L647,908" stroke="#05203D" stroke-linejoin="round"></path>
                <path d="M368.5,908 C368.5,912.248462 368.5,965.766154 368.5,992" stroke="#A4ABBD" stroke-linejoin="round"></path>
                <path d="M786.5,657 C786.5,660.694923 786.5,707.20575 786.5,730" stroke="#A4ABBD" stroke-linejoin="round"></path>
                <path d="M902.084977,450.5 C902.084977,473.419745 883.712534,492 861.042489,492 C838.372443,492 820,473.419745 820,450.5 C820,427.580255 838.372443,409 861.042489,409 L993,409" stroke="#A4ABBD" stroke-linejoin="round"></path>
                <path d="M1046,539.5 L1046,481.152655 C1046,464.499774 1059.43377,451 1076,451 C1092.56623,451 1106,464.499774 1106,481.152655 L1106,597.847345 C1106,614.500226 1092.56623,628 1076,628 C1059.43377,628 1046,614.500226 1046,597.847345 L1046,583.75" stroke="#A4ABBD" stroke-linejoin="round"></path>
                <path d="M994,451 L994,602.829094 C994,648.21096 1030.93643,685 1076.5,685 C1122.06357,685 1159,648.21096 1159,602.829094 L1159,566.957208" stroke="#404756" stroke-linejoin="round"></path>
                <path d="M1007,316 L963.695312,316 C932.382812,316 907,341.519603 907,373" stroke="#05203D" stroke-linejoin="round"></path>
                <path d="M1045.5,273 C1045.5,279.070225 1045.5,371.552576 1045.5,409" stroke="#A4ABBD" stroke-linejoin="round"></path>
                <path d="M1294,495.14852 L1294,508.33208 C1294,526.9265 1278.8282,542 1260.12442,542 C1241.41279,542 1226.24099,526.9265 1226.24099,508.33208 L1226.24099,497.41208 C1226.24099,478.95884 1211.18692,464 1192.62442,464 C1174.05407,464 1159,478.95884 1159,497.41208 L1159,510.85148" stroke="#404756" stroke-linejoin="round"></path>
                <path d="M222.5,769.081301 C201.789062,769.081301 185,785.855203 185,806.54065 C185,827.226098 201.789062,844 222.5,844 C243.210938,844 260,827.226098 260,806.54065 L260,747" stroke="#05203D" stroke-linejoin="round"></path>
                <path d="M265,692 L265,632.934418 C265,598.924545 291.889975,570.435873 328,563" stroke="#A4ABBD" stroke-linejoin="round"></path>
                <path d="M222.5,605 C222.5,597.128807 222.5,511.561646 222.5,463" stroke="#404756" stroke-linejoin="round"></path>
                <path d="M319,672.879245 C319,646.436558 340.490623,625 367,625 C393.509377,625 415,646.436558 415,672.879245 L415,785.120755 C415,811.564226 393.509377,833 367,833 C340.490623,833 319,811.564226 319,785.120755 L319,672.879245 Z" stroke="#404756" stroke-linejoin="round"></path>
                <path d="M1226,890.43662 C1226,868.659718 1243.45939,851 1265,851 C1286.54061,851 1304,868.659718 1304,890.43662 L1304,935" stroke="#A4ABBD" stroke-linejoin="round"></path>
                <ellipse stroke="#A4ABBD" stroke-linejoin="round" cx="1386.5" cy="828" rx="41.5" ry="41"></ellipse>
                <path d="M1305.73333,1009.5 C1305.73333,1030.21094 1289.00093,1047 1268.36667,1047 C1247.7324,1047 1231,1030.21094 1231,1009.5 C1231,988.789062 1247.7324,972 1268.36667,972 L1408,972" stroke="#A4ABBD" stroke-linejoin="round"></path>
                <path d="M1259,733 L1395.16314,733 C1446.98771,733 1489,775.0885 1489,827 C1489,878.9115 1446.98771,921 1395.16314,921 L1354.20273,921" stroke="#05203D" stroke-linejoin="round"></path>
                <path d="M1457,972 L1500.14577,972 C1543.69821,972 1579,1007.45367 1579,1051.195 L1579,1132" stroke="#A4ABBD" stroke-linejoin="round"></path>
                <ellipse stroke="#05203D" stroke-linejoin="round" cx="1499" cy="1051.5" rx="27" ry="26.5"></ellipse>
                <g transform="translate(1352.000000, 1082.000000)" stroke-linejoin="round">
                    <path d="M0.471425188,59 C0.490475063,69 0.509524937,79 0.528574812,89" stroke="#404756"></path>
                    <path d="M0.471425188,0 C0.490475063,10 0.509524937,20 0.528574812,30" stroke="#A4ABBD"></path>
                </g>
                <path d="M1165.47143,1031 C1165.49048,1041 1165.50952,1051 1165.52857,1061" stroke="#404756" stroke-linejoin="round"></path>
                <path d="M1165.47143,972 C1165.49048,982 1165.50952,992 1165.52857,1002" stroke="#A4ABBD" stroke-linejoin="round"></path>
                <path d="M1105.47143,972 C1105.49048,982 1105.50952,992 1105.52857,1002" stroke="#A4ABBD" stroke-linejoin="round"></path>
                <path d="M689.471425,893 C689.490475,903 689.509525,913 689.528575,923" stroke="#05203D" stroke-linejoin="round"></path>
                <path d="M246.471425,914 C246.490475,924 246.509525,934 246.528575,944" stroke="#A4ABBD" stroke-linejoin="round"></path>
                <path d="M381.471425,510 C381.490475,520 381.509525,530 381.528575,540" stroke="#A4ABBD" stroke-linejoin="round"></path>
                <path d="M332.471425,436 C332.490475,446 332.509525,456 332.528575,466" stroke="#A4ABBD" stroke-linejoin="round"></path>
                <path d="M746.471425,477 C746.490475,487 746.509525,497 746.528575,507" stroke="#404756" stroke-linejoin="round"></path>
                <path d="M1044.47143,160 C1044.49048,170 1044.50952,180 1044.52857,190" stroke="#404756" stroke-linejoin="round"></path>
                <path d="M1044.47143,103 C1044.49048,113 1044.50952,123 1044.52857,133" stroke="#05203D" stroke-linejoin="round"></path>
                <path d="M1373.47143,637 C1373.49048,647 1373.50952,657 1373.52857,667" stroke="#05203D" stroke-linejoin="round"></path>
                <path d="M1444.47143,637 C1444.49048,647 1444.50952,657 1444.52857,667" stroke="#05203D" stroke-linejoin="round"></path>
                <path d="M1515.47143,637 C1515.49048,647 1515.50952,657 1515.52857,667" stroke="#05203D" stroke-linejoin="round"></path>
            </g>
        </g>
    </g>
</svg>
