<?xml version="1.0" standalone="no"?>
<!DOCTYPE svg PUBLIC "-//W3C//DTD SVG 20010904//EN"
 "http://www.w3.org/TR/2001/REC-SVG-20010904/DTD/svg10.dtd">
<svg version="1.0" xmlns="http://www.w3.org/2000/svg"
 width="700.000000pt" height="700.000000pt" viewBox="0 0 700.000000 700.000000"
 preserveAspectRatio="xMidYMid meet">
<metadata>
Created by potrace 1.14, written by Peter Selinger 2001-2017
</metadata>
<g transform="translate(0.000000,700.000000) scale(0.100000,-0.100000)"
fill="#000000" stroke="none">
<path d="M3425 6696 c-78 -26 -3004 -1496 -3039 -1526 -85 -75 -116 -220 -68
-325 49 -107 -20 -69 1602 -880 l1500 -750 80 0 80 0 1500 750 c1622 811 1553
773 1602 880 30 66 30 161 1 226 -47 106 31 63 -1600 877 -1641 820 -1557 782
-1658 748z m1208 -1172 l1132 -567 -1133 -566 -1132 -566 -1132 566 -1133 566
1130 566 c622 311 1131 566 1133 566 1 1 512 -254 1135 -565z"/>
<path d="M489 3775 c-64 -20 -141 -92 -170 -157 -49 -111 -22 -246 67 -328 33
-30 391 -213 1539 -787 l1495 -748 80 0 80 0 1495 748 c1148 574 1506 757
1539 787 160 147 95 426 -112 486 -120 35 -24 78 -1585 -702 l-1417 -709
-1417 709 c-1386 693 -1419 709 -1483 712 -40 2 -83 -2 -111 -11z"/>
<path d="M500 2321 c-78 -25 -146 -87 -182 -166 -48 -106 -17 -249 68 -325 20
-17 688 -357 1540 -783 l1504 -752 70 0 70 0 1511 755 c1276 638 1516 761
1546 794 106 116 104 287 -5 399 -62 65 -104 82 -204 82 l-88 0 -1415 -707
-1415 -708 -1415 707 -1415 708 -72 2 c-40 1 -84 -1 -98 -6z"/>
</g>
</svg>
