<?xml version="1.0" standalone="no"?>
<!DOCTYPE svg PUBLIC "-//W3C//DTD SVG 20010904//EN"
 "http://www.w3.org/TR/2001/REC-SVG-20010904/DTD/svg10.dtd">
<svg version="1.0" xmlns="http://www.w3.org/2000/svg"
 width="1000.000000pt" height="1000.000000pt" viewBox="0 0 1000.000000 1000.000000"
 preserveAspectRatio="xMidYMid meet">
<metadata>
Created by potrace 1.14, written by Peter Selinger 2001-2017
</metadata>
<g transform="translate(0.000000,1000.000000) scale(0.100000,-0.100000)"
fill="#000000" stroke="none">
<path d="M4689 9989 c-1868 -112 -3531 -1281 -4277 -3004 -420 -970 -521
-2056 -287 -3091 290 -1281 1076 -2397 2190 -3110 1489 -953 3394 -1041 4970
-230 477 246 854 523 1246 915 205 205 328 346 471 536 889 1185 1206 2722
857 4165 -183 759 -522 1432 -1030 2045 -114 138 -480 502 -619 617 -1007 832
-2233 1235 -3521 1157z m415 -2118 c103 -49 197 -91 201 -91 5 0 124 -55 290
-135 572 -274 1442 -709 1805 -903 41 -22 100 -53 130 -69 30 -15 92 -49 138
-75 46 -27 85 -48 87 -48 2 0 34 -19 70 -41 92 -58 120 -107 119 -209 0 -130
-29 -164 -242 -276 -51 -27 -125 -66 -165 -88 -123 -66 -833 -429 -1057 -541
-468 -234 -1058 -523 -1215 -595 -38 -18 -95 -44 -125 -58 -69 -33 -138 -34
-200 -5 -25 12 -97 46 -160 76 -63 30 -155 74 -205 97 -250 117 -1358 669
-1863 929 -12 6 -30 15 -41 20 -10 5 -58 31 -107 57 -49 26 -132 69 -184 97
-142 74 -206 114 -234 148 -23 27 -26 40 -26 102 0 115 46 185 178 274 31 21
66 43 77 49 11 6 36 20 55 31 178 100 232 129 795 420 191 98 604 304 1075
535 275 135 354 173 505 243 39 17 90 41 115 53 58 27 131 28 184 3z m-2619
-2656 c88 -40 321 -148 509 -238 60 -29 540 -267 1068 -529 527 -263 966 -478
976 -478 12 0 613 296 769 379 164 87 1365 681 1377 681 2 0 46 20 98 44 51
24 125 56 163 71 39 14 86 33 105 41 102 42 219 55 268 30 77 -40 140 -174
125 -269 -9 -60 -104 -154 -238 -234 -11 -7 -49 -30 -85 -51 -64 -39 -140 -80
-355 -193 -426 -225 -2132 -1058 -2168 -1059 -7 0 -21 -7 -31 -15 -33 -25 -43
-22 -181 41 -156 71 -242 112 -555 267 -652 322 -762 377 -1265 637 -88 45
-239 123 -335 172 -96 50 -204 106 -240 126 -86 48 -178 98 -215 117 -48 24
-107 68 -127 96 -54 73 -49 185 12 266 38 51 122 119 155 127 40 9 111 -3 170
-29z m-58 -1301 c53 -23 86 -37 178 -79 165 -76 196 -90 430 -205 132 -64 317
-154 410 -200 94 -45 485 -239 871 -431 385 -192 707 -349 716 -349 8 0 125
54 259 121 134 67 573 284 974 484 727 361 939 465 949 465 6 0 173 77 208 95
14 8 32 15 38 15 7 0 53 16 101 35 77 30 100 35 174 35 l85 0 40 -41 c22 -23
40 -47 40 -53 0 -6 9 -28 20 -49 13 -25 20 -56 20 -95 0 -103 -51 -155 -295
-300 -124 -73 -169 -98 -320 -178 -66 -34 -172 -90 -235 -123 -225 -118 -1580
-790 -1760 -874 -30 -14 -100 -46 -155 -72 -147 -69 -148 -69 -390 45 -33 15
-100 47 -150 70 -91 43 -1218 603 -1330 661 -87 45 -76 39 -318 163 -336 171
-509 263 -725 383 -82 46 -138 114 -147 180 -12 91 26 181 103 243 86 69 141
83 209 54z"/>
<path d="M4910 7258 c-216 -103 -915 -448 -1095 -542 -71 -38 -191 -100 -265
-138 -74 -39 -139 -74 -145 -78 -5 -4 -46 -27 -90 -50 -92 -49 -205 -121 -230
-146 -14 -14 -14 -19 -3 -30 19 -19 193 -108 683 -353 1015 -506 1251 -621
1270 -621 11 0 184 82 385 181 201 100 404 201 452 225 47 23 94 47 105 52 10
6 50 26 88 45 194 97 725 367 756 385 21 11 64 35 98 52 34 18 64 36 67 42 9
14 -23 45 -84 81 -30 18 -71 42 -91 54 -20 11 -63 35 -96 53 -33 17 -80 43
-105 57 -99 56 -1098 552 -1305 648 -54 25 -179 81 -218 98 -54 24 -103 20
-177 -15z"/>
</g>
</svg>
