<?xml version="1.0" standalone="no"?>
<!DOCTYPE svg PUBLIC "-//W3C//DTD SVG 20010904//EN"
 "http://www.w3.org/TR/2001/REC-SVG-20010904/DTD/svg10.dtd">
<svg version="1.0" xmlns="http://www.w3.org/2000/svg"
 width="144.000000pt" height="144.000000pt" viewBox="0 0 144.000000 144.000000"
 preserveAspectRatio="xMidYMid meet">
<metadata>
Created by potrace 1.14, written by Peter Selinger 2001-2017
</metadata>
<g transform="translate(0.000000,144.000000) scale(0.100000,-0.100000)"
fill="#ffffff" stroke="none">
<path d="M385 1221 c-290 -148 -310 -160 -319 -190 -7 -24 -6 -36 5 -46 19
-19 632 -325 650 -325 19 0 625 304 644 323 18 19 19 47 3 70 -17 22 -628 327
-653 326 -11 -1 -159 -72 -330 -158z m569 -84 c171 -85 224 -116 214 -124 -7
-5 -111 -59 -230 -118 l-217 -108 -218 108 c-120 59 -224 112 -231 118 -9 7
47 40 210 123 123 62 228 113 234 113 6 1 114 -50 238 -112z"/>
<path d="M80 760 c-23 -23 -26 -49 -8 -73 14 -17 626 -327 647 -327 7 0 154
71 328 157 334 166 348 176 325 228 -24 52 -42 46 -356 -111 l-295 -148 -294
147 c-161 81 -301 147 -310 147 -9 0 -26 -9 -37 -20z"/>
<path d="M80 460 c-25 -25 -26 -54 -2 -77 20 -20 622 -323 642 -323 7 0 154
71 328 158 332 166 347 176 324 227 -24 52 -42 46 -356 -111 l-296 -147 -293
146 c-162 81 -301 147 -310 147 -10 0 -26 -9 -37 -20z"/>
</g>
</svg>
