<svg width="96" height="96" viewBox="0 0 128 128" fill="none" xmlns="http://www.w3.org/2000/svg">
<circle cx="64" cy="64" r="64" fill="#1E1E1E"/>
<path d="M69.8182 82.9091H82.9091M82.9091 82.9091H96M82.9091 82.9091V69.8182M82.9091 82.9091V96M40.7273 58.1818H49.4545C51.7692 58.1818 53.989 57.2623 55.6257 55.6257C57.2623 53.989 58.1818 51.7692 58.1818 49.4545V40.7273C58.1818 38.4127 57.2623 36.1928 55.6257 34.5562C53.989 32.9195 51.7692 32 49.4545 32H40.7273C38.4127 32 36.1928 32.9195 34.5562 34.5562C32.9195 36.1928 32 38.4127 32 40.7273V49.4545C32 51.7692 32.9195 53.989 34.5562 55.6257C36.1928 57.2623 38.4127 58.1818 40.7273 58.1818ZM40.7273 96H49.4545C51.7692 96 53.989 95.0805 55.6257 93.4438C57.2623 91.8072 58.1818 89.5873 58.1818 87.2727V78.5455C58.1818 76.2308 57.2623 74.011 55.6257 72.3743C53.989 70.7377 51.7692 69.8182 49.4545 69.8182H40.7273C38.4127 69.8182 36.1928 70.7377 34.5562 72.3743C32.9195 74.011 32 76.2308 32 78.5455V87.2727C32 89.5873 32.9195 91.8072 34.5562 93.4438C36.1928 95.0805 38.4127 96 40.7273 96ZM78.5455 58.1818H87.2727C89.5873 58.1818 91.8072 57.2623 93.4438 55.6257C95.0805 53.989 96 51.7692 96 49.4545V40.7273C96 38.4127 95.0805 36.1928 93.4438 34.5562C91.8072 32.9195 89.5873 32 87.2727 32H78.5455C76.2308 32 74.011 32.9195 72.3743 34.5562C70.7377 36.1928 69.8182 38.4127 69.8182 40.7273V49.4545C69.8182 51.7692 70.7377 53.989 72.3743 55.6257C74.011 57.2623 76.2308 58.1818 78.5455 58.1818Z" stroke="#D9D9D9" stroke-width="3" stroke-linecap="round" stroke-linejoin="round"/>
</svg>

