<?xml version="1.0" standalone="no"?>
<!DOCTYPE svg PUBLIC "-//W3C//DTD SVG 20010904//EN"
 "http://www.w3.org/TR/2001/REC-SVG-20010904/DTD/svg10.dtd">
<svg version="1.0" xmlns="http://www.w3.org/2000/svg"
 width="700.000000pt" height="700.000000pt" viewBox="0 0 700.000000 700.000000"
 preserveAspectRatio="xMidYMid meet">
<metadata>
Created by potrace 1.14, written by Peter Selinger 2001-2017
</metadata>
<g transform="translate(0.000000,700.000000) scale(0.100000,-0.100000)"
fill="#000000" stroke="none">
<path d="M145 6985 c-51 -18 -120 -91 -134 -141 -16 -56 -15 -6633 0 -6689 15
-53 91 -129 144 -144 29 -8 959 -11 3350 -11 2954 1 3314 3 3350 16 22 9 49
18 60 21 12 3 32 29 50 65 l30 60 0 3341 0 3342 -27 47 c-16 26 -28 60 -28 77
l0 31 -3377 0 c-2887 -1 -3384 -3 -3418 -15z m4165 -1425 c447 -41 772 -166
988 -380 173 -173 257 -373 269 -640 17 -383 -125 -683 -412 -871 -36 -24 -65
-46 -65 -49 0 -3 30 -19 68 -35 234 -102 410 -255 511 -446 93 -175 126 -337
118 -583 -6 -193 -31 -306 -101 -449 -140 -285 -410 -484 -783 -577 -248 -62
-269 -63 -970 -67 l-643 -4 0 36 c0 36 -1 37 -27 30 -285 -72 -349 -77 -1046
-82 l-627 -5 2 2059 3 2058 470 -1 c511 -2 656 -12 871 -60 107 -23 237 -64
317 -98 l37 -16 0 95 0 95 453 0 c248 0 504 -5 567 -10z"/>
<path d="M3470 3515 l0 -1885 423 0 c685 0 893 27 1200 156 270 113 444 319
502 595 62 293 -3 603 -168 797 -118 140 -258 222 -579 338 -103 38 -186 69
-185 70 1 1 83 48 182 104 99 56 207 122 241 146 155 109 258 278 294 480 18
104 8 339 -19 429 -38 130 -87 212 -186 311 -100 101 -184 156 -320 209 -254
100 -544 135 -1127 135 l-258 0 0 -1885z"/>
<path d="M1770 3501 l0 -1882 543 4 c441 3 562 7 647 20 101 16 276 60 313 79
16 8 17 60 17 867 l0 859 -122 45 c-68 24 -140 50 -160 57 -20 8 -35 17 -33
21 3 3 74 46 160 95 l155 88 0 719 0 718 -67 30 c-88 41 -220 83 -318 103
-200 41 -295 48 -717 53 l-418 5 0 -1881z"/>
</g>
</svg>
